<svg width="57" height="50" viewBox="0 0 57 50" fill="none" xmlns="http://www.w3.org/2000/svg">
<path d="M14.752 22.12C14.152 22.12 13.596 22.012 13.084 21.796C12.572 21.58 12.124 21.28 11.74 20.896C11.364 20.504 11.072 20.044 10.864 19.516C10.656 18.988 10.552 18.412 10.552 17.788C10.552 17.164 10.656 16.588 10.864 16.06C11.072 15.532 11.364 15.076 11.74 14.692C12.124 14.3 12.572 13.996 13.084 13.78C13.596 13.564 14.152 13.456 14.752 13.456C15.36 13.456 15.92 13.564 16.432 13.78C16.944 13.996 17.388 14.3 17.764 14.692C18.14 15.084 18.432 15.544 18.64 16.072C18.848 16.592 18.952 17.164 18.952 17.788C18.952 18.404 18.848 18.976 18.64 19.504C18.432 20.032 18.14 20.492 17.764 20.884C17.388 21.276 16.944 21.58 16.432 21.796C15.92 22.012 15.36 22.12 14.752 22.12ZM14.752 20.632C15.136 20.632 15.484 20.564 15.796 20.428C16.116 20.284 16.392 20.084 16.624 19.828C16.856 19.564 17.036 19.26 17.164 18.916C17.3 18.572 17.368 18.196 17.368 17.788C17.368 17.38 17.3 17.004 17.164 16.66C17.036 16.316 16.856 16.016 16.624 15.76C16.392 15.496 16.116 15.296 15.796 15.16C15.484 15.016 15.136 14.944 14.752 14.944C14.376 14.944 14.028 15.016 13.708 15.16C13.388 15.296 13.112 15.492 12.88 15.748C12.648 16.004 12.468 16.304 12.34 16.648C12.212 16.992 12.148 17.372 12.148 17.788C12.148 18.196 12.212 18.576 12.34 18.928C12.468 19.272 12.648 19.572 12.88 19.828C13.112 20.084 13.388 20.284 13.708 20.428C14.028 20.564 14.376 20.632 14.752 20.632ZM20.3796 24.64V15.676H21.8316L21.8556 17.116L21.6036 17.008C21.6516 16.76 21.7876 16.528 22.0116 16.312C22.2356 16.088 22.5076 15.908 22.8276 15.772C23.1556 15.636 23.4956 15.568 23.8476 15.568C24.4076 15.568 24.9036 15.708 25.3356 15.988C25.7756 16.268 26.1196 16.652 26.3676 17.14C26.6236 17.628 26.7516 18.192 26.7516 18.832C26.7516 19.464 26.6236 20.028 26.3676 20.524C26.1196 21.012 25.7756 21.4 25.3356 21.688C24.9036 21.968 24.4156 22.108 23.8716 22.108C23.5036 22.108 23.1476 22.036 22.8036 21.892C22.4676 21.748 22.1796 21.56 21.9396 21.328C21.7076 21.096 21.5636 20.852 21.5076 20.596L21.8676 20.428V24.64H20.3796ZM23.5716 20.8C23.9076 20.8 24.2076 20.716 24.4716 20.548C24.7356 20.38 24.9396 20.148 25.0836 19.852C25.2356 19.556 25.3116 19.216 25.3116 18.832C25.3116 18.448 25.2396 18.112 25.0956 17.824C24.9516 17.528 24.7476 17.296 24.4836 17.128C24.2196 16.96 23.9156 16.876 23.5716 16.876C23.2196 16.876 22.9116 16.96 22.6476 17.128C22.3916 17.288 22.1876 17.516 22.0356 17.812C21.8836 18.108 21.8076 18.448 21.8076 18.832C21.8076 19.216 21.8836 19.556 22.0356 19.852C22.1876 20.148 22.3916 20.38 22.6476 20.548C22.9116 20.716 23.2196 20.8 23.5716 20.8ZM31.0311 22.12C30.3671 22.12 29.7791 21.98 29.2671 21.7C28.7631 21.42 28.3671 21.04 28.0791 20.56C27.7991 20.072 27.6591 19.516 27.6591 18.892C27.6591 18.396 27.7391 17.944 27.8991 17.536C28.0591 17.128 28.2791 16.776 28.5591 16.48C28.8471 16.176 29.1871 15.944 29.5791 15.784C29.9791 15.616 30.4151 15.532 30.8871 15.532C31.3031 15.532 31.6911 15.612 32.0511 15.772C32.4111 15.932 32.7231 16.152 32.9871 16.432C33.2511 16.704 33.4511 17.032 33.5871 17.416C33.7311 17.792 33.7991 18.204 33.7911 18.652L33.7791 19.168H28.6551L28.3791 18.16H32.5431L32.3511 18.364V18.1C32.3271 17.852 32.2471 17.636 32.1111 17.452C31.9751 17.26 31.7991 17.112 31.5831 17.008C31.3751 16.896 31.1431 16.84 30.8871 16.84C30.4951 16.84 30.1631 16.916 29.8911 17.068C29.6271 17.22 29.4271 17.44 29.2911 17.728C29.1551 18.008 29.0871 18.36 29.0871 18.784C29.0871 19.192 29.1711 19.548 29.3391 19.852C29.5151 20.156 29.7591 20.392 30.0711 20.56C30.3911 20.72 30.7631 20.8 31.1871 20.8C31.4831 20.8 31.7551 20.752 32.0031 20.656C32.2511 20.56 32.5191 20.388 32.8071 20.14L33.5391 21.16C33.3231 21.36 33.0751 21.532 32.7951 21.676C32.5231 21.812 32.2351 21.92 31.9311 22C31.6271 22.08 31.3271 22.12 31.0311 22.12ZM35.0984 22V15.676H36.5384L36.5624 16.972L36.2864 17.116C36.3664 16.828 36.5224 16.568 36.7544 16.336C36.9864 16.096 37.2624 15.904 37.5824 15.76C37.9024 15.616 38.2304 15.544 38.5664 15.544C39.0464 15.544 39.4464 15.64 39.7664 15.832C40.0944 16.024 40.3384 16.312 40.4984 16.696C40.6664 17.08 40.7504 17.56 40.7504 18.136V22H39.2744V18.244C39.2744 17.924 39.2304 17.66 39.1424 17.452C39.0544 17.236 38.9184 17.08 38.7344 16.984C38.5504 16.88 38.3264 16.832 38.0624 16.84C37.8464 16.84 37.6464 16.876 37.4624 16.948C37.2864 17.012 37.1304 17.108 36.9944 17.236C36.8664 17.356 36.7624 17.496 36.6824 17.656C36.6104 17.816 36.5744 17.992 36.5744 18.184V22H35.8424C35.6984 22 35.5624 22 35.4344 22C35.3144 22 35.2024 22 35.0984 22Z" fill="white"/>
<path d="M11.128 37V28.6H14.704C15.256 28.6 15.72 28.68 16.096 28.84C16.48 29 16.768 29.24 16.96 29.56C17.16 29.872 17.26 30.252 17.26 30.7C17.26 31.164 17.136 31.556 16.888 31.876C16.64 32.196 16.292 32.416 15.844 32.536L15.832 32.296C16.208 32.376 16.536 32.52 16.816 32.728C17.096 32.928 17.312 33.18 17.464 33.484C17.624 33.78 17.704 34.12 17.704 34.504C17.704 34.912 17.636 35.272 17.5 35.584C17.372 35.896 17.18 36.156 16.924 36.364C16.668 36.572 16.364 36.732 16.012 36.844C15.66 36.948 15.264 37 14.824 37H11.128ZM12.652 35.596H14.752C15.048 35.596 15.296 35.552 15.496 35.464C15.704 35.376 15.86 35.248 15.964 35.08C16.076 34.904 16.132 34.696 16.132 34.456C16.132 34.232 16.072 34.04 15.952 33.88C15.84 33.72 15.676 33.6 15.46 33.52C15.244 33.432 14.988 33.388 14.692 33.388H12.652V35.596ZM12.652 32.044H14.56C14.792 32.044 14.992 32 15.16 31.912C15.336 31.824 15.472 31.704 15.568 31.552C15.664 31.4 15.712 31.224 15.712 31.024C15.712 30.704 15.604 30.456 15.388 30.28C15.172 30.096 14.856 30.004 14.44 30.004H12.652V32.044ZM22.006 37.12C21.374 37.12 20.81 36.98 20.314 36.7C19.818 36.412 19.426 36.02 19.138 35.524C18.85 35.028 18.706 34.464 18.706 33.832C18.706 33.2 18.85 32.636 19.138 32.14C19.426 31.644 19.818 31.256 20.314 30.976C20.81 30.688 21.374 30.544 22.006 30.544C22.63 30.544 23.19 30.688 23.686 30.976C24.182 31.256 24.57 31.644 24.85 32.14C25.138 32.636 25.282 33.2 25.282 33.832C25.282 34.464 25.138 35.028 24.85 35.524C24.57 36.02 24.182 36.412 23.686 36.7C23.19 36.98 22.63 37.12 22.006 37.12ZM22.006 35.812C22.35 35.812 22.654 35.724 22.918 35.548C23.19 35.372 23.402 35.136 23.554 34.84C23.714 34.544 23.79 34.208 23.782 33.832C23.79 33.448 23.714 33.108 23.554 32.812C23.402 32.516 23.19 32.284 22.918 32.116C22.654 31.94 22.35 31.852 22.006 31.852C21.662 31.852 21.35 31.94 21.07 32.116C20.798 32.284 20.586 32.52 20.434 32.824C20.282 33.12 20.206 33.456 20.206 33.832C20.206 34.208 20.282 34.544 20.434 34.84C20.586 35.136 20.798 35.372 21.07 35.548C21.35 35.724 21.662 35.812 22.006 35.812ZM29.4943 37.12C28.8623 37.12 28.2983 36.98 27.8023 36.7C27.3063 36.412 26.9143 36.02 26.6263 35.524C26.3383 35.028 26.1943 34.464 26.1943 33.832C26.1943 33.2 26.3383 32.636 26.6263 32.14C26.9143 31.644 27.3063 31.256 27.8023 30.976C28.2983 30.688 28.8623 30.544 29.4943 30.544C30.1183 30.544 30.6783 30.688 31.1743 30.976C31.6703 31.256 32.0583 31.644 32.3383 32.14C32.6263 32.636 32.7703 33.2 32.7703 33.832C32.7703 34.464 32.6263 35.028 32.3383 35.524C32.0583 36.02 31.6703 36.412 31.1743 36.7C30.6783 36.98 30.1183 37.12 29.4943 37.12ZM29.4943 35.812C29.8383 35.812 30.1423 35.724 30.4063 35.548C30.6783 35.372 30.8903 35.136 31.0423 34.84C31.2023 34.544 31.2783 34.208 31.2703 33.832C31.2783 33.448 31.2023 33.108 31.0423 32.812C30.8903 32.516 30.6783 32.284 30.4063 32.116C30.1423 31.94 29.8383 31.852 29.4943 31.852C29.1503 31.852 28.8383 31.94 28.5583 32.116C28.2863 32.284 28.0743 32.52 27.9223 32.824C27.7703 33.12 27.6943 33.456 27.6943 33.832C27.6943 34.208 27.7703 34.544 27.9223 34.84C28.0743 35.136 28.2863 35.372 28.5583 35.548C28.8383 35.724 29.1503 35.812 29.4943 35.812ZM35.4706 35.068L35.1826 33.688L38.1826 30.676H40.1506L35.4706 35.068ZM34.0906 37V28.12H35.5666V37H34.0906ZM38.3626 37L36.0346 34.18L37.0786 33.292L40.1866 37H38.3626ZM43.2104 37.12C42.6504 37.12 42.1464 37.028 41.6984 36.844C41.2584 36.652 40.8984 36.38 40.6184 36.028L41.5784 35.2C41.8184 35.472 42.0864 35.668 42.3824 35.788C42.6784 35.908 42.9904 35.968 43.3184 35.968C43.4544 35.968 43.5744 35.952 43.6784 35.92C43.7904 35.888 43.8864 35.84 43.9664 35.776C44.0464 35.712 44.1064 35.64 44.1464 35.56C44.1944 35.472 44.2184 35.376 44.2184 35.272C44.2184 35.08 44.1464 34.928 44.0024 34.816C43.9224 34.76 43.7944 34.7 43.6184 34.636C43.4504 34.572 43.2304 34.508 42.9584 34.444C42.5264 34.332 42.1664 34.204 41.8784 34.06C41.5904 33.908 41.3664 33.74 41.2064 33.556C41.0704 33.404 40.9664 33.232 40.8944 33.04C40.8304 32.848 40.7984 32.64 40.7984 32.416C40.7984 32.136 40.8584 31.884 40.9784 31.66C41.1064 31.428 41.2784 31.228 41.4944 31.06C41.7104 30.892 41.9624 30.764 42.2504 30.676C42.5384 30.588 42.8384 30.544 43.1504 30.544C43.4704 30.544 43.7784 30.584 44.0744 30.664C44.3784 30.744 44.6584 30.86 44.9144 31.012C45.1784 31.156 45.4024 31.332 45.5864 31.54L44.7704 32.44C44.6184 32.296 44.4504 32.168 44.2664 32.056C44.0904 31.944 43.9104 31.856 43.7264 31.792C43.5424 31.72 43.3704 31.684 43.2104 31.684C43.0584 31.684 42.9224 31.7 42.8024 31.732C42.6824 31.756 42.5824 31.796 42.5024 31.852C42.4224 31.908 42.3584 31.98 42.3104 32.068C42.2704 32.148 42.2504 32.244 42.2504 32.356C42.2584 32.452 42.2824 32.544 42.3224 32.632C42.3704 32.712 42.4344 32.78 42.5144 32.836C42.6024 32.892 42.7344 32.956 42.9104 33.028C43.0864 33.1 43.3144 33.168 43.5944 33.232C43.9864 33.336 44.3144 33.452 44.5784 33.58C44.8424 33.708 45.0504 33.856 45.2024 34.024C45.3544 34.168 45.4624 34.336 45.5264 34.528C45.5904 34.72 45.6224 34.932 45.6224 35.164C45.6224 35.54 45.5144 35.876 45.2984 36.172C45.0904 36.468 44.8024 36.7 44.4344 36.868C44.0744 37.036 43.6664 37.12 43.2104 37.12Z" fill="white"/>
</svg>
