<svg id="Слой_1" data-name="Слой 1" xmlns="http://www.w3.org/2000/svg" viewBox="0 0 11.42 9"><defs><style>.cls-1{fill:#fff;}</style></defs><path class="cls-1" d="M11.18,5.27A2.28,2.28,0,0,0,9.87,4.1a1.94,1.94,0,0,0,.66-.58,2,2,0,0,0,.38-1.26A2.26,2.26,0,0,0,10.61,1,1.76,1.76,0,0,0,9.74.27,3.35,3.35,0,0,0,8.35,0H4.25a4.16,4.16,0,0,0-3,1.28A4,4,0,0,0,.32,2.7,4.78,4.78,0,0,0,0,4.5,4.85,4.85,0,0,0,.32,6.3a4.36,4.36,0,0,0,.93,1.43A4.23,4.23,0,0,0,4.25,9H8.47a4.77,4.77,0,0,0,1.26-.13,2.81,2.81,0,0,0,.91-.51,1.93,1.93,0,0,0,.58-.84,3,3,0,0,0,.2-1.15A2.33,2.33,0,0,0,11.18,5.27ZM6.27,1.52H8.09A1.28,1.28,0,0,1,9,1.81a1,1,0,0,1,.33.8.93.93,0,0,1-.15.56.94.94,0,0,1-.4.39,1.36,1.36,0,0,1-.6.14H6.27ZM4.77,7.44H4.25a2.71,2.71,0,0,1-1.06-.21,2.32,2.32,0,0,1-.83-.62,2.71,2.71,0,0,1-.55-.94,3.19,3.19,0,0,1-.2-1.18,3.19,3.19,0,0,1,.2-1.18,2.62,2.62,0,0,1,.55-.94,2.3,2.3,0,0,1,.83-.61,2.55,2.55,0,0,1,1.06-.22h.52ZM9.61,7a1,1,0,0,1-.5.37,1.84,1.84,0,0,1-.74.14H6.27V5.19H8.34a1.82,1.82,0,0,1,.77.14,1,1,0,0,1,.49.39,1,1,0,0,1,.18.62A1.19,1.19,0,0,1,9.61,7Z"/></svg>